<mxfile host="Electron" agent="Mozilla/5.0 (Windows NT 10.0; Win64; x64) AppleWebKit/537.36 (KHTML, like Gecko) draw.io/25.0.2 Chrome/128.0.6613.186 Electron/32.2.5 Safari/537.36" version="25.0.2">
  <diagram id="R2lEEEUBdFMjLlhIrx00" name="Page-1">
    <mxGraphModel dx="807" dy="779" grid="1" gridSize="10" guides="1" tooltips="1" connect="1" arrows="1" fold="1" page="1" pageScale="1" pageWidth="850" pageHeight="1100" math="0" shadow="0" extFonts="Permanent Marker^https://fonts.googleapis.com/css?family=Permanent+Marker">
      <root>
        <mxCell id="0" />
        <mxCell id="1" parent="0" />
        <mxCell id="LrgFrGgnKRn9gnrKyvN1-1" value="Parent Folder" style="swimlane;" parent="1" vertex="1">
          <mxGeometry x="20" y="30" width="760" height="620" as="geometry" />
        </mxCell>
        <mxCell id="LrgFrGgnKRn9gnrKyvN1-2" value="Metadata File" style="swimlane;" parent="LrgFrGgnKRn9gnrKyvN1-1" vertex="1">
          <mxGeometry x="10" y="30" width="120" height="70" as="geometry" />
        </mxCell>
        <mxCell id="LrgFrGgnKRn9gnrKyvN1-5" value="l1s0" style="swimlane;fontStyle=0;childLayout=stackLayout;horizontal=1;startSize=26;horizontalStack=0;resizeParent=1;resizeParentMax=0;resizeLast=0;collapsible=1;marginBottom=0;align=center;fontSize=14;" parent="LrgFrGgnKRn9gnrKyvN1-1" vertex="1">
          <mxGeometry x="10" y="120" width="160" height="146" as="geometry" />
        </mxCell>
        <mxCell id="j7KrwhmS64TWg9JCUcNl-1" value="l1s0.bin" style="text;strokeColor=none;fillColor=none;spacingLeft=4;spacingRight=4;overflow=hidden;rotatable=0;points=[[0,0.5],[1,0.5]];portConstraint=eastwest;fontSize=12;whiteSpace=wrap;html=1;" parent="LrgFrGgnKRn9gnrKyvN1-5" vertex="1">
          <mxGeometry y="26" width="160" height="30" as="geometry" />
        </mxCell>
        <mxCell id="LrgFrGgnKRn9gnrKyvN1-7" value="l0s0.json" style="text;strokeColor=none;fillColor=none;spacingLeft=4;spacingRight=4;overflow=hidden;rotatable=0;points=[[0,0.5],[1,0.5]];portConstraint=eastwest;fontSize=12;whiteSpace=wrap;html=1;" parent="LrgFrGgnKRn9gnrKyvN1-5" vertex="1">
          <mxGeometry y="56" width="160" height="30" as="geometry" />
        </mxCell>
        <mxCell id="LrgFrGgnKRn9gnrKyvN1-8" value="l0s1.json" style="text;strokeColor=none;fillColor=none;spacingLeft=4;spacingRight=4;overflow=hidden;rotatable=0;points=[[0,0.5],[1,0.5]];portConstraint=eastwest;fontSize=12;whiteSpace=wrap;html=1;" parent="LrgFrGgnKRn9gnrKyvN1-5" vertex="1">
          <mxGeometry y="86" width="160" height="30" as="geometry" />
        </mxCell>
        <mxCell id="QEZ_RuPX-nVI-A6pmcZZ-2" value="l0s2.json" style="text;strokeColor=none;fillColor=none;spacingLeft=4;spacingRight=4;overflow=hidden;rotatable=0;points=[[0,0.5],[1,0.5]];portConstraint=eastwest;fontSize=12;whiteSpace=wrap;html=1;" parent="LrgFrGgnKRn9gnrKyvN1-5" vertex="1">
          <mxGeometry y="116" width="160" height="30" as="geometry" />
        </mxCell>
        <mxCell id="LrgFrGgnKRn9gnrKyvN1-13" value="l2s0" style="swimlane;" parent="LrgFrGgnKRn9gnrKyvN1-1" vertex="1">
          <mxGeometry x="190" y="40" width="200" height="480" as="geometry" />
        </mxCell>
        <mxCell id="LrgFrGgnKRn9gnrKyvN1-14" value="l1s1" style="swimlane;fontStyle=0;childLayout=stackLayout;horizontal=1;startSize=26;horizontalStack=0;resizeParent=1;resizeParentMax=0;resizeLast=0;collapsible=1;marginBottom=0;align=center;fontSize=14;" parent="LrgFrGgnKRn9gnrKyvN1-13" vertex="1">
          <mxGeometry x="10" y="160" width="160" height="146" as="geometry" />
        </mxCell>
        <mxCell id="j7KrwhmS64TWg9JCUcNl-2" value="l1s1.bin" style="text;strokeColor=none;fillColor=none;spacingLeft=4;spacingRight=4;overflow=hidden;rotatable=0;points=[[0,0.5],[1,0.5]];portConstraint=eastwest;fontSize=12;whiteSpace=wrap;html=1;" parent="LrgFrGgnKRn9gnrKyvN1-14" vertex="1">
          <mxGeometry y="26" width="160" height="30" as="geometry" />
        </mxCell>
        <mxCell id="LrgFrGgnKRn9gnrKyvN1-16" value="l0s2.json" style="text;strokeColor=none;fillColor=none;spacingLeft=4;spacingRight=4;overflow=hidden;rotatable=0;points=[[0,0.5],[1,0.5]];portConstraint=eastwest;fontSize=12;whiteSpace=wrap;html=1;" parent="LrgFrGgnKRn9gnrKyvN1-14" vertex="1">
          <mxGeometry y="56" width="160" height="30" as="geometry" />
        </mxCell>
        <mxCell id="LrgFrGgnKRn9gnrKyvN1-17" value="l0s3.json" style="text;strokeColor=none;fillColor=none;spacingLeft=4;spacingRight=4;overflow=hidden;rotatable=0;points=[[0,0.5],[1,0.5]];portConstraint=eastwest;fontSize=12;whiteSpace=wrap;html=1;" parent="LrgFrGgnKRn9gnrKyvN1-14" vertex="1">
          <mxGeometry y="86" width="160" height="30" as="geometry" />
        </mxCell>
        <mxCell id="QEZ_RuPX-nVI-A6pmcZZ-3" value="l0s4.json" style="text;strokeColor=none;fillColor=none;spacingLeft=4;spacingRight=4;overflow=hidden;rotatable=0;points=[[0,0.5],[1,0.5]];portConstraint=eastwest;fontSize=12;whiteSpace=wrap;html=1;" parent="LrgFrGgnKRn9gnrKyvN1-14" vertex="1">
          <mxGeometry y="116" width="160" height="30" as="geometry" />
        </mxCell>
        <mxCell id="LrgFrGgnKRn9gnrKyvN1-19" value="l1s2" style="swimlane;fontStyle=0;childLayout=stackLayout;horizontal=1;startSize=26;horizontalStack=0;resizeParent=1;resizeParentMax=0;resizeLast=0;collapsible=1;marginBottom=0;align=center;fontSize=14;" parent="LrgFrGgnKRn9gnrKyvN1-13" vertex="1">
          <mxGeometry x="10" y="320" width="160" height="146" as="geometry" />
        </mxCell>
        <mxCell id="j7KrwhmS64TWg9JCUcNl-3" value="l1s2.bin" style="text;strokeColor=none;fillColor=none;spacingLeft=4;spacingRight=4;overflow=hidden;rotatable=0;points=[[0,0.5],[1,0.5]];portConstraint=eastwest;fontSize=12;whiteSpace=wrap;html=1;" parent="LrgFrGgnKRn9gnrKyvN1-19" vertex="1">
          <mxGeometry y="26" width="160" height="30" as="geometry" />
        </mxCell>
        <mxCell id="LrgFrGgnKRn9gnrKyvN1-21" value="l0s5.json" style="text;strokeColor=none;fillColor=none;spacingLeft=4;spacingRight=4;overflow=hidden;rotatable=0;points=[[0,0.5],[1,0.5]];portConstraint=eastwest;fontSize=12;whiteSpace=wrap;html=1;" parent="LrgFrGgnKRn9gnrKyvN1-19" vertex="1">
          <mxGeometry y="56" width="160" height="30" as="geometry" />
        </mxCell>
        <mxCell id="LrgFrGgnKRn9gnrKyvN1-22" value="l0s6.json" style="text;strokeColor=none;fillColor=none;spacingLeft=4;spacingRight=4;overflow=hidden;rotatable=0;points=[[0,0.5],[1,0.5]];portConstraint=eastwest;fontSize=12;whiteSpace=wrap;html=1;" parent="LrgFrGgnKRn9gnrKyvN1-19" vertex="1">
          <mxGeometry y="86" width="160" height="30" as="geometry" />
        </mxCell>
        <mxCell id="QEZ_RuPX-nVI-A6pmcZZ-4" value="l0s7.json" style="text;strokeColor=none;fillColor=none;spacingLeft=4;spacingRight=4;overflow=hidden;rotatable=0;points=[[0,0.5],[1,0.5]];portConstraint=eastwest;fontSize=12;whiteSpace=wrap;html=1;" parent="LrgFrGgnKRn9gnrKyvN1-19" vertex="1">
          <mxGeometry y="116" width="160" height="30" as="geometry" />
        </mxCell>
        <mxCell id="QEZ_RuPX-nVI-A6pmcZZ-5" value="l1s0&lt;symlink&gt;" style="swimlane;fontStyle=0;childLayout=stackLayout;horizontal=1;startSize=26;horizontalStack=0;resizeParent=1;resizeParentMax=0;resizeLast=0;collapsible=1;marginBottom=0;align=center;fontSize=14;" parent="LrgFrGgnKRn9gnrKyvN1-13" vertex="1">
          <mxGeometry x="10" y="90" width="160" height="56" as="geometry" />
        </mxCell>
        <mxCell id="SQYvitA7fTX4RBbq9GN4-1" value="l2s0.bin" style="text;strokeColor=none;fillColor=none;spacingLeft=4;spacingRight=4;overflow=hidden;rotatable=0;points=[[0,0.5],[1,0.5]];portConstraint=eastwest;fontSize=12;whiteSpace=wrap;html=1;" vertex="1" parent="LrgFrGgnKRn9gnrKyvN1-13">
          <mxGeometry x="10" y="50" width="160" height="30" as="geometry" />
        </mxCell>
        <mxCell id="LrgFrGgnKRn9gnrKyvN1-23" value="l3s0" style="swimlane;" parent="LrgFrGgnKRn9gnrKyvN1-1" vertex="1">
          <mxGeometry x="410" y="40" width="320" height="560" as="geometry" />
        </mxCell>
        <mxCell id="LrgFrGgnKRn9gnrKyvN1-32" value="l2s3" style="swimlane;" parent="LrgFrGgnKRn9gnrKyvN1-23" vertex="1">
          <mxGeometry x="10" y="90" width="250" height="450" as="geometry" />
        </mxCell>
        <mxCell id="LrgFrGgnKRn9gnrKyvN1-33" value="l1s1" style="swimlane;fontStyle=0;childLayout=stackLayout;horizontal=1;startSize=26;horizontalStack=0;resizeParent=1;resizeParentMax=0;resizeLast=0;collapsible=1;marginBottom=0;align=center;fontSize=14;fillColor=#ffe6cc;strokeColor=#d79b00;" parent="LrgFrGgnKRn9gnrKyvN1-32" vertex="1">
          <mxGeometry x="10" y="130" width="160" height="146" as="geometry" />
        </mxCell>
        <mxCell id="j7KrwhmS64TWg9JCUcNl-4" value="l1s1.bin" style="text;strokeColor=none;fillColor=none;spacingLeft=4;spacingRight=4;overflow=hidden;rotatable=0;points=[[0,0.5],[1,0.5]];portConstraint=eastwest;fontSize=12;whiteSpace=wrap;html=1;fontColor=#FF8000;" parent="LrgFrGgnKRn9gnrKyvN1-33" vertex="1">
          <mxGeometry y="26" width="160" height="30" as="geometry" />
        </mxCell>
        <mxCell id="LrgFrGgnKRn9gnrKyvN1-35" value="l0s2.json" style="text;strokeColor=none;fillColor=none;spacingLeft=4;spacingRight=4;overflow=hidden;rotatable=0;points=[[0,0.5],[1,0.5]];portConstraint=eastwest;fontSize=12;whiteSpace=wrap;html=1;fontColor=#FF8000;" parent="LrgFrGgnKRn9gnrKyvN1-33" vertex="1">
          <mxGeometry y="56" width="160" height="30" as="geometry" />
        </mxCell>
        <mxCell id="LrgFrGgnKRn9gnrKyvN1-36" value="l0s3.json" style="text;strokeColor=none;fillColor=none;spacingLeft=4;spacingRight=4;overflow=hidden;rotatable=0;points=[[0,0.5],[1,0.5]];portConstraint=eastwest;fontSize=12;whiteSpace=wrap;html=1;fontColor=#FF8000;" parent="LrgFrGgnKRn9gnrKyvN1-33" vertex="1">
          <mxGeometry y="86" width="160" height="30" as="geometry" />
        </mxCell>
        <mxCell id="QEZ_RuPX-nVI-A6pmcZZ-12" value="l0s4.json" style="text;strokeColor=none;fillColor=none;spacingLeft=4;spacingRight=4;overflow=hidden;rotatable=0;points=[[0,0.5],[1,0.5]];portConstraint=eastwest;fontSize=12;whiteSpace=wrap;html=1;fontColor=#FF8000;" parent="LrgFrGgnKRn9gnrKyvN1-33" vertex="1">
          <mxGeometry y="116" width="160" height="30" as="geometry" />
        </mxCell>
        <mxCell id="LrgFrGgnKRn9gnrKyvN1-37" value="l1s2" style="swimlane;fontStyle=0;childLayout=stackLayout;horizontal=1;startSize=26;horizontalStack=0;resizeParent=1;resizeParentMax=0;resizeLast=0;collapsible=1;marginBottom=0;align=center;fontSize=14;fillColor=#d5e8d4;strokeColor=#82b366;" parent="LrgFrGgnKRn9gnrKyvN1-32" vertex="1">
          <mxGeometry x="10" y="290" width="160" height="146" as="geometry" />
        </mxCell>
        <mxCell id="j7KrwhmS64TWg9JCUcNl-5" value="l1s2.bin" style="text;strokeColor=none;fillColor=none;spacingLeft=4;spacingRight=4;overflow=hidden;rotatable=0;points=[[0,0.5],[1,0.5]];portConstraint=eastwest;fontSize=12;whiteSpace=wrap;html=1;fontColor=#00994D;" parent="LrgFrGgnKRn9gnrKyvN1-37" vertex="1">
          <mxGeometry y="26" width="160" height="30" as="geometry" />
        </mxCell>
        <mxCell id="LrgFrGgnKRn9gnrKyvN1-39" value="l0s0.json" style="text;strokeColor=none;fillColor=none;spacingLeft=4;spacingRight=4;overflow=hidden;rotatable=0;points=[[0,0.5],[1,0.5]];portConstraint=eastwest;fontSize=12;whiteSpace=wrap;html=1;fontColor=#009900;" parent="LrgFrGgnKRn9gnrKyvN1-37" vertex="1">
          <mxGeometry y="56" width="160" height="30" as="geometry" />
        </mxCell>
        <mxCell id="LrgFrGgnKRn9gnrKyvN1-40" value="l0s1.json" style="text;strokeColor=none;fillColor=none;spacingLeft=4;spacingRight=4;overflow=hidden;rotatable=0;points=[[0,0.5],[1,0.5]];portConstraint=eastwest;fontSize=12;whiteSpace=wrap;html=1;fontColor=#00994D;" parent="LrgFrGgnKRn9gnrKyvN1-37" vertex="1">
          <mxGeometry y="86" width="160" height="30" as="geometry" />
        </mxCell>
        <mxCell id="QEZ_RuPX-nVI-A6pmcZZ-11" value="l0s2.json" style="text;strokeColor=none;fillColor=none;spacingLeft=4;spacingRight=4;overflow=hidden;rotatable=0;points=[[0,0.5],[1,0.5]];portConstraint=eastwest;fontSize=12;whiteSpace=wrap;html=1;fontColor=#00994D;" parent="LrgFrGgnKRn9gnrKyvN1-37" vertex="1">
          <mxGeometry y="116" width="160" height="30" as="geometry" />
        </mxCell>
        <mxCell id="QEZ_RuPX-nVI-A6pmcZZ-14" value="l2s0&lt;symlink&gt;" style="swimlane;fontStyle=0;childLayout=stackLayout;horizontal=1;startSize=26;horizontalStack=0;resizeParent=1;resizeParentMax=0;resizeLast=0;collapsible=1;marginBottom=0;align=center;fontSize=14;" parent="LrgFrGgnKRn9gnrKyvN1-32" vertex="1">
          <mxGeometry x="10" y="60" width="160" height="56" as="geometry" />
        </mxCell>
        <mxCell id="SQYvitA7fTX4RBbq9GN4-3" value="l2s3.bin" style="text;strokeColor=none;fillColor=none;spacingLeft=4;spacingRight=4;overflow=hidden;rotatable=0;points=[[0,0.5],[1,0.5]];portConstraint=eastwest;fontSize=12;whiteSpace=wrap;html=1;" vertex="1" parent="LrgFrGgnKRn9gnrKyvN1-32">
          <mxGeometry x="10" y="30" width="160" height="30" as="geometry" />
        </mxCell>
        <mxCell id="SQYvitA7fTX4RBbq9GN4-4" value="l3s0.bin" style="text;strokeColor=none;fillColor=none;spacingLeft=4;spacingRight=4;overflow=hidden;rotatable=0;points=[[0,0.5],[1,0.5]];portConstraint=eastwest;fontSize=12;whiteSpace=wrap;html=1;" vertex="1" parent="LrgFrGgnKRn9gnrKyvN1-23">
          <mxGeometry x="20" y="40" width="160" height="30" as="geometry" />
        </mxCell>
        <mxCell id="QEZ_RuPX-nVI-A6pmcZZ-10" value="" style="endArrow=classic;html=1;rounded=0;entryX=1;entryY=0;entryDx=0;entryDy=0;exitX=0;exitY=0.5;exitDx=0;exitDy=0;" parent="LrgFrGgnKRn9gnrKyvN1-1" source="QEZ_RuPX-nVI-A6pmcZZ-5" target="LrgFrGgnKRn9gnrKyvN1-5" edge="1">
          <mxGeometry width="50" height="50" relative="1" as="geometry">
            <mxPoint x="350" y="390" as="sourcePoint" />
            <mxPoint x="400" y="340" as="targetPoint" />
          </mxGeometry>
        </mxCell>
        <mxCell id="QEZ_RuPX-nVI-A6pmcZZ-15" value="" style="endArrow=classic;html=1;rounded=0;exitX=0;exitY=0.5;exitDx=0;exitDy=0;" parent="1" source="QEZ_RuPX-nVI-A6pmcZZ-14" edge="1">
          <mxGeometry width="50" height="50" relative="1" as="geometry">
            <mxPoint x="380" y="420" as="sourcePoint" />
            <mxPoint x="410" y="100" as="targetPoint" />
          </mxGeometry>
        </mxCell>
      </root>
    </mxGraphModel>
  </diagram>
</mxfile>
